<svg id="Grupo_24162" data-name="Grupo 24162" xmlns="http://www.w3.org/2000/svg" xmlns:xlink="http://www.w3.org/1999/xlink" width="149.58" height="50" viewBox="0 0 149.58 50">
  <defs>
    <clipPath id="clip-path">
      <rect id="Rectángulo_2920" data-name="Rectángulo 2920" width="149.58" height="50" fill="none"/>
    </clipPath>
  </defs>
  <g id="Grupo_8811" data-name="Grupo 8811" transform="translate(0 0)" clip-path="url(#clip-path)">
    <path id="Trazado_18015" data-name="Trazado 18015" d="M137.669,0H11.919c-.459,0-.911,0-1.369,0-.382,0-.762.01-1.149.016A16.668,16.668,0,0,0,6.9.239a8.4,8.4,0,0,0-2.376.784A8.061,8.061,0,0,0,2.5,2.5,7.838,7.838,0,0,0,1.025,4.523,8.243,8.243,0,0,0,.244,6.9,16.166,16.166,0,0,0,.019,9.4c-.011.384-.012.769-.019,1.151V39.449c.006.388.007.764.019,1.151a16.138,16.138,0,0,0,.225,2.5,8.209,8.209,0,0,0,.781,2.381A7.744,7.744,0,0,0,2.5,47.5,7.853,7.853,0,0,0,4.52,48.975a8.411,8.411,0,0,0,2.376.789,17,17,0,0,0,2.505.22c.386.009.766.014,1.149.014.458,0,.91,0,1.369,0h125.75c.449,0,.906,0,1.355,0,.381,0,.771-.005,1.153-.014a16.588,16.588,0,0,0,2.5-.22,8.534,8.534,0,0,0,2.385-.789,7.825,7.825,0,0,0,2.021-1.474,8.027,8.027,0,0,0,1.478-2.017,8.244,8.244,0,0,0,.774-2.381,16.778,16.778,0,0,0,.232-2.5c0-.388,0-.764,0-1.151.01-.455.01-.906.01-1.368V11.92c0-.458,0-.911-.01-1.365,0-.383,0-.768,0-1.151a16.794,16.794,0,0,0-.232-2.5,8.266,8.266,0,0,0-.774-2.379,8.082,8.082,0,0,0-3.5-3.5,8.483,8.483,0,0,0-2.385-.784,16.269,16.269,0,0,0-2.5-.22C139.795.012,139.4,0,139.024,0,138.575,0,138.117,0,137.669,0Z" transform="translate(0 0)" fill="#a6a6a6"/>
    <path id="Trazado_18016" data-name="Trazado 18016" d="M10.338,48.688c-.381,0-.753-.005-1.13-.014a15.719,15.719,0,0,1-2.336-.2A7.338,7.338,0,0,1,4.8,47.785a6.749,6.749,0,0,1-1.746-1.27,6.672,6.672,0,0,1-1.276-1.746A7.2,7.2,0,0,1,1.1,42.7a15.508,15.508,0,0,1-.208-2.344C.883,40.09.873,39.212.873,39.212V10.336s.011-.864.019-1.118A15.606,15.606,0,0,1,1.1,6.879,7.2,7.2,0,0,1,1.778,4.8,6.7,6.7,0,0,1,3.047,3.054,6.976,6.976,0,0,1,4.8,1.775,7.3,7.3,0,0,1,6.867,1.1,15.835,15.835,0,0,1,9.211.89L10.339.875H138.8l1.141.016a15.4,15.4,0,0,1,2.324.2,7.442,7.442,0,0,1,2.087.685A6.987,6.987,0,0,1,147.371,4.8a7.23,7.23,0,0,1,.67,2.061,16.224,16.224,0,0,1,.216,2.359c0,.354,0,.735,0,1.113.01.469.01.915.01,1.365V37.862c0,.454,0,.9-.01,1.344,0,.406,0,.779-.005,1.163a15.816,15.816,0,0,1-.212,2.316,7.214,7.214,0,0,1-.675,2.087,6.87,6.87,0,0,1-1.27,1.733,6.759,6.759,0,0,1-1.749,1.277,7.325,7.325,0,0,1-2.085.688,15.585,15.585,0,0,1-2.337.2c-.366.009-.749.014-1.121.014l-1.355,0Z" transform="translate(0.218 0.219)"/>
    <path id="Trazado_18017" data-name="Trazado 18017" d="M28.468,21.883a6.186,6.186,0,0,1,2.946-5.19,6.333,6.333,0,0,0-4.99-2.7c-2.1-.22-4.134,1.256-5.2,1.256-1.091,0-2.737-1.234-4.511-1.2a6.643,6.643,0,0,0-5.591,3.41c-2.418,4.185-.614,10.336,1.7,13.72,1.159,1.656,2.512,3.507,4.285,3.441,1.734-.071,2.381-1.1,4.474-1.1,2.074,0,2.681,1.1,4.489,1.064,1.861-.03,3.032-1.664,4.151-3.336a13.706,13.706,0,0,0,1.9-3.866,5.978,5.978,0,0,1-3.649-5.5" transform="translate(2.493 3.493)" fill="#fff"/>
    <path id="Trazado_18018" data-name="Trazado 18018" d="M22.849,13.084A6.092,6.092,0,0,0,24.242,8.72a6.2,6.2,0,0,0-4.01,2.075A5.8,5.8,0,0,0,18.8,15a5.123,5.123,0,0,0,4.046-1.912" transform="translate(4.698 2.18)" fill="#fff"/>
    <path id="Trazado_18019" data-name="Trazado 18019" d="M44.271,29.405H38.354L36.933,33.6H34.427l5.605-15.522h2.6l5.6,15.522H45.691Zm-5.3-1.936h4.69L41.344,20.66h-.064Z" transform="translate(8.607 4.519)" fill="#fff"/>
    <path id="Trazado_18020" data-name="Trazado 18020" d="M57.292,27.126c0,3.516-1.884,5.776-4.722,5.776a3.837,3.837,0,0,1-3.562-1.98h-.054v5.605H46.632V21.467h2.249V23.35h.043a4.011,4.011,0,0,1,3.6-2c2.871,0,4.766,2.27,4.766,5.777m-2.387,0c0-2.291-1.185-3.8-2.993-3.8-1.775,0-2.969,1.537-2.969,3.8,0,2.28,1.194,3.808,2.969,3.808,1.807,0,2.993-1.5,2.993-3.808" transform="translate(11.658 5.336)" fill="#fff"/>
    <path id="Trazado_18021" data-name="Trazado 18021" d="M67.256,27.126c0,3.516-1.882,5.776-4.723,5.776a3.837,3.837,0,0,1-3.561-1.98h-.054v5.605H56.6V21.467h2.249V23.35h.043a4.014,4.014,0,0,1,3.6-2c2.873,0,4.765,2.27,4.765,5.777m-2.388,0c0-2.291-1.184-3.8-2.991-3.8-1.775,0-2.969,1.537-2.969,3.8,0,2.28,1.194,3.808,2.969,3.808C63.685,30.933,64.868,29.438,64.868,27.126Z" transform="translate(14.149 5.336)" fill="#fff"/>
    <path id="Trazado_18022" data-name="Trazado 18022" d="M72.187,29.327c.171,1.539,1.667,2.55,3.71,2.55,1.958,0,3.366-1.011,3.366-2.4,0-1.2-.85-1.926-2.861-2.42l-2.01-.485c-2.852-.689-4.175-2.021-4.175-4.185,0-2.678,2.335-4.518,5.647-4.518,3.28,0,5.529,1.84,5.605,4.518H79.124C78.983,20.84,77.7,19.9,75.833,19.9s-3.154.946-3.154,2.323c0,1.1.819,1.744,2.819,2.238l1.711.42c3.184.754,4.509,2.032,4.509,4.3,0,2.9-2.315,4.722-5.994,4.722-3.442,0-5.766-1.776-5.915-4.584Z" transform="translate(17.452 4.468)" fill="#fff"/>
    <path id="Trazado_18023" data-name="Trazado 18023" d="M84.142,19.3v2.679h2.153v1.839H84.142v6.239c0,.97.431,1.421,1.377,1.421a7.106,7.106,0,0,0,.764-.054v1.829a6.376,6.376,0,0,1-1.29.107c-2.291,0-3.185-.86-3.185-3.055V23.817H80.162V21.979h1.646V19.3Z" transform="translate(20.041 4.825)" fill="#fff"/>
    <path id="Trazado_18024" data-name="Trazado 18024" d="M86.065,27.13c0-3.561,2.1-5.8,5.367-5.8s5.369,2.238,5.369,5.8-2.078,5.8-5.369,5.8-5.367-2.229-5.367-5.8m8.369,0c0-2.442-1.12-3.884-3-3.884s-3,1.452-3,3.884c0,2.452,1.119,3.882,3,3.882S94.434,29.582,94.434,27.13Z" transform="translate(21.516 5.333)" fill="#fff"/>
    <path id="Trazado_18025" data-name="Trazado 18025" d="M96.186,21.467H98.4v1.926h.054a2.7,2.7,0,0,1,2.722-2.045,3.631,3.631,0,0,1,.8.087v2.173a3.209,3.209,0,0,0-1.044-.14A2.34,2.34,0,0,0,98.5,25.712a2.477,2.477,0,0,0,.012.36v6.712H96.186Z" transform="translate(24.047 5.336)" fill="#fff"/>
    <path id="Trazado_18026" data-name="Trazado 18026" d="M111.426,29.463c-.312,2.055-2.312,3.465-4.872,3.465-3.292,0-5.336-2.206-5.336-5.745s2.055-5.853,5.239-5.853c3.131,0,5.1,2.151,5.1,5.583v.8h-7.994v.14a2.948,2.948,0,0,0,2.676,3.2,3.021,3.021,0,0,0,.369.01,2.562,2.562,0,0,0,2.614-1.593Zm-7.852-3.378h5.657a2.721,2.721,0,0,0-2.566-2.869c-.069,0-.139-.005-.209,0a2.866,2.866,0,0,0-2.882,2.847v.025" transform="translate(25.304 5.333)" fill="#fff"/>
    <path id="Trazado_18027" data-name="Trazado 18027" d="M35.428,12.5c0-2.419,1.286-3.913,3.36-3.913a2.979,2.979,0,0,1,3.1,2.585H40.735a1.918,1.918,0,0,0-1.947-1.505c-1.34,0-2.178,1.09-2.178,2.833s.837,2.827,2.181,2.827a1.87,1.87,0,0,0,1.944-1.375h1.154a2.911,2.911,0,0,1-3.1,2.455c-2.072,0-3.364-1.494-3.364-3.907" transform="translate(8.857 2.146)" fill="#fff"/>
    <path id="Trazado_18028" data-name="Trazado 18028" d="M41.612,13.028a2.666,2.666,0,1,1,5.309,0,2.667,2.667,0,0,1-5.309.517,2.753,2.753,0,0,1,0-.517m4.166,0c0-1.22-.548-1.934-1.51-1.934s-1.509.714-1.509,1.934.544,1.938,1.509,1.938,1.51-.713,1.51-1.937" transform="translate(10.4 2.527)" fill="#fff"/>
    <path id="Trazado_18029" data-name="Trazado 18029" d="M47.05,10.218h1.069v.894H48.2a1.685,1.685,0,0,1,1.68-1A1.829,1.829,0,0,1,51.83,12.2v3.644H50.72V12.482c0-.9-.394-1.354-1.215-1.354a1.29,1.29,0,0,0-1.35,1.229,1.3,1.3,0,0,0,.006.2v3.293H47.05Z" transform="translate(11.763 2.526)" fill="#fff"/>
    <path id="Trazado_18030" data-name="Trazado 18030" d="M54.361,10.108c1.265,0,2.092.589,2.2,1.581H55.5c-.1-.412-.506-.676-1.135-.676s-1.092.294-1.092.734c0,.336.286.547.895.687l.936.216c1.069.249,1.571.709,1.571,1.536,0,1.059-.988,1.767-2.333,1.767s-2.211-.605-2.31-1.6H53.14a1.143,1.143,0,0,0,1.225.7c.693,0,1.184-.31,1.184-.76,0-.335-.264-.552-.827-.687l-.981-.227c-1.07-.253-1.565-.734-1.565-1.571,0-1,.912-1.7,2.186-1.7" transform="translate(13.007 2.527)" fill="#fff"/>
    <path id="Trazado_18031" data-name="Trazado 18031" d="M56.865,9.8l1.3-1.777h1.3L58.012,9.8Zm.115.941h1.106v5.629H56.98Z" transform="translate(14.216 2.005)" fill="#fff"/>
    <path id="Trazado_18032" data-name="Trazado 18032" d="M59.27,16.405h1.136c.094.409.564.672,1.314.672.925,0,1.473-.44,1.473-1.184v-1.08H63.11a1.893,1.893,0,0,1-1.737.945c-1.436,0-2.325-1.11-2.325-2.8,0-1.716.9-2.842,2.336-2.842a1.951,1.951,0,0,1,1.767.992h.089v-.9H64.3v5.675c0,1.286-1.009,2.1-2.6,2.1-1.406,0-2.316-.631-2.434-1.587m3.944-3.447c0-1.121-.58-1.84-1.526-1.84s-1.493.719-1.493,1.84.538,1.84,1.493,1.84,1.526-.713,1.526-1.84" transform="translate(14.762 2.53)" fill="#fff"/>
    <path id="Trazado_18033" data-name="Trazado 18033" d="M69.428,15.824h-1.07V14.93H68.27a1.688,1.688,0,0,1-1.7,1,1.83,1.83,0,0,1-1.954-1.694,1.85,1.85,0,0,1,.015-.39V10.195h1.112V13.56c0,.909.366,1.344,1.183,1.344a1.278,1.278,0,0,0,1.393-1.151,1.252,1.252,0,0,0,0-.265V10.195h1.112Z" transform="translate(16.153 2.549)" fill="#fff"/>
    <path id="Trazado_18034" data-name="Trazado 18034" d="M74.7,14.326a2.285,2.285,0,0,1-2.439,1.629,2.558,2.558,0,0,1-2.624-2.489,2.44,2.44,0,0,1,.024-.416,2.593,2.593,0,0,1,2.595-2.941c1.566,0,2.511,1.07,2.511,2.838v.387H70.794V13.4A1.488,1.488,0,0,0,72.152,15c.047,0,.094.005.141.005a1.35,1.35,0,0,0,1.34-.683Zm-3.908-1.814h2.842a1.358,1.358,0,0,0-1.254-1.455q-.066,0-.131,0a1.441,1.441,0,0,0-1.457,1.422v.036" transform="translate(17.41 2.527)" fill="#fff"/>
    <rect id="Rectángulo_2918" data-name="Rectángulo 2918" width="1.111" height="7.826" transform="translate(93.721 10.546)" fill="#fff"/>
    <path id="Trazado_18035" data-name="Trazado 18035" d="M77.1,13.028a2.666,2.666,0,1,1,5.309,0,2.667,2.667,0,0,1-5.309.517,2.753,2.753,0,0,1,0-.517m4.166,0c0-1.22-.547-1.934-1.51-1.934s-1.509.714-1.509,1.934.544,1.938,1.509,1.938,1.51-.713,1.51-1.937" transform="translate(19.273 2.527)" fill="#fff"/>
    <path id="Trazado_18036" data-name="Trazado 18036" d="M89.8,14.326a2.285,2.285,0,0,1-2.439,1.629,2.558,2.558,0,0,1-2.624-2.489,2.441,2.441,0,0,1,.024-.416,2.593,2.593,0,0,1,2.6-2.941c1.566,0,2.511,1.07,2.511,2.838v.387H85.9V13.4A1.488,1.488,0,0,0,87.254,15c.048,0,.094.005.141.005a1.35,1.35,0,0,0,1.34-.683ZM85.9,12.512h2.843a1.358,1.358,0,0,0-1.254-1.455q-.066,0-.131,0A1.44,1.44,0,0,0,85.9,12.474Z" transform="translate(21.185 2.527)" fill="#fff"/>
    <path id="Trazado_18037" data-name="Trazado 18037" d="M90.039,10.218h1.069v.894h.084a1.685,1.685,0,0,1,1.68-1A1.829,1.829,0,0,1,94.819,12.2v3.644h-1.11V12.482c0-.9-.394-1.354-1.215-1.354a1.29,1.29,0,0,0-1.35,1.229,1.3,1.3,0,0,0,.006.2v3.293H90.039Z" transform="translate(22.51 2.526)" fill="#fff"/>
    <path id="Trazado_18038" data-name="Trazado 18038" d="M102.5,14.326a2.285,2.285,0,0,1-2.439,1.629,2.558,2.558,0,0,1-2.624-2.489,2.439,2.439,0,0,1,.024-.416,2.593,2.593,0,0,1,2.595-2.941c1.566,0,2.511,1.07,2.511,2.838v.387H98.593V13.4A1.488,1.488,0,0,0,99.951,15c.047,0,.094.005.141.005a1.35,1.35,0,0,0,1.34-.683Zm-3.908-1.814h2.843a1.358,1.358,0,0,0-1.254-1.455q-.066,0-.131,0a1.441,1.441,0,0,0-1.458,1.422Z" transform="translate(24.359 2.527)" fill="#fff"/>
    <rect id="Rectángulo_2919" data-name="Rectángulo 2919" width="1.111" height="7.826" transform="translate(128.47 10.546)" fill="#fff"/>
  </g>
</svg>
