<svg xmlns="http://www.w3.org/2000/svg" width="67.171" height="72" viewBox="0 0 67.171 72">
  <g id="Grupo_24157" data-name="Grupo 24157" transform="translate(-976.996 -1521)">
    <path id="Trazado_8832" data-name="Trazado 8832" d="M29.947,72H1.892C.321,72,.021,71.7.02,70.118q0-24.5-.019-49A2.163,2.163,0,0,1,1.182,19Q16.809,9.721,32.4.378a2.088,2.088,0,0,1,2.416.013Q48.279,8.41,61.769,16.383c1.5.89,3,1.792,4.506,2.667a1.653,1.653,0,0,1,.9,1.584q-.019,24.838-.011,49.676c0,1.151-.411,1.541-1.606,1.541q-17.8,0-35.607,0V72M18.9,38.231c-1.312.367-1.883-.3-2.408-1.129-.865-1.37-1.8-2.7-2.686-4.053a3.669,3.669,0,0,1,1.476-5.6,38.977,38.977,0,0,1,4.024-1.98,5.158,5.158,0,0,0,3.562-3.909,4.274,4.274,0,0,1,.337-.83,6,6,0,0,1,2.515-2.886A19.942,19.942,0,0,1,31.785,15.8a5.476,5.476,0,0,1,1.562-.095,18.258,18.258,0,0,1,7.389,2.473,31.569,31.569,0,0,1,9.052,8.17,46.145,46.145,0,0,1,8.82,20.7,45.536,45.536,0,0,1,.442,11.621,46.309,46.309,0,0,1-1.964,9.876c-.226.713-.042.839.642.825,1.969-.04,3.94-.015,5.91-.018,1.025,0,1.027,0,1.027-1.018q0-23.153.016-46.306a1.49,1.49,0,0,0-.854-1.471Q49.076,11.851,34.357,3.092a1.262,1.262,0,0,0-1.492-.017Q18.141,11.9,3.386,20.668A1.544,1.544,0,0,0,2.5,22.2c.031,7.406.019,14.812.019,22.218q0,12.044-.012,24.088c0,.664.165.932.874.923q4.263-.054,8.528-.016c.7.006.778-.2.578-.824a28.946,28.946,0,0,1-1.345-7.408A30.594,30.594,0,0,1,15.1,44.23a43.707,43.707,0,0,1,3.808-6m29.234-9.8c-.067.09-.118.127-.119.165-.009.3-.007.6-.013.9a6.03,6.03,0,0,1-8.681,5.278A5.729,5.729,0,0,1,35.937,29.3a22.776,22.776,0,0,0-.2-4.175c-.469-2.448-1.921-4.406-3.284-6.4-.3-.436-.74-.367-1.152-.241-1.025.312-2.038.659-3.061.978a4.3,4.3,0,0,0-2.846,2.655c-.394,1-.818,1.982-1.187,2.988a2.315,2.315,0,0,1-1.264,1.39c-.9.419-1.775.91-2.683,1.321a.8.8,0,0,0-.561.963A5.038,5.038,0,0,1,17.8,33.555c-.132.108-.279.211-.264.421a2.423,2.423,0,0,0,1.955,1.7c2.975-.276,5.943-.657,8.924-.8,1.424-.07,2.314-.467,2.812-1.85a1.191,1.191,0,0,1,1.739-.638,1.287,1.287,0,0,1,.5,1.81c-.255.568-.595,1.1-.818,1.68a2.1,2.1,0,0,1-2.085,1.387c-1.168.063-2.331.214-3.5.291-.441.029-.622.19-.609.638.022.747.03,1.5,0,2.243a.867.867,0,0,0,.586.921c.835.391,1.647.831,2.479,1.227a8.354,8.354,0,0,1,4.9,6.448,4.74,4.74,0,0,0,.616,2.128,4.8,4.8,0,0,1,.481,5.153c-.092.2-.306.418-.148.62.546.694.905,1.588,1.809,1.926A12.269,12.269,0,0,1,45.473,68.7a.688.688,0,0,0,.792.672q3.627-.031,7.255,0a.764.764,0,0,0,.849-.63,45,45,0,0,0,2.036-18.883,44.04,44.04,0,0,0-5.723-17.569,29.178,29.178,0,0,0-2.544-3.857M29.162,69.354c4.338,0,8.676-.013,13.014.013.711,0,.846-.2.675-.872a9.715,9.715,0,0,0-6.6-7.224,3.213,3.213,0,0,1-1.731-1.209c-.2-.287-.448-.537-.645-.824-.223-.325-.405-.336-.712-.071a7.714,7.714,0,0,1-5.809,1.9,7.8,7.8,0,0,1-5.5-2.832,1.215,1.215,0,0,1,.083-1.693,1.246,1.246,0,0,1,1.7-.048c.252.2.475.441.72.652a5.352,5.352,0,0,0,4.353,1.335,6.07,6.07,0,0,0,4.2-2.845,2.366,2.366,0,0,0-.054-3.091,2.814,2.814,0,0,1-.623-1.331c-.112-.587-.236-1.172-.338-1.761a5.8,5.8,0,0,0-3.411-4.515c-1.217-.575-2.407-1.2-3.615-1.8a1.464,1.464,0,0,1-.913-1.485c.03-.822-.027-1.647.017-2.467.035-.655-.232-.706-.753-.525a6.489,6.489,0,0,0-3.658,3.027c-.379.673-.761,1.345-1.173,2A28.714,28.714,0,0,0,15.083,68.4a1.128,1.128,0,0,0,1.29.97c4.263-.04,8.526-.019,12.789-.019m12.78-36.508a3.382,3.382,0,0,0,3.417-2.773,8.053,8.053,0,0,0-2-6.578,15.635,15.635,0,0,0-6.879-4.456c-.2-.07-.449-.276-.62-.071s.084.408.193.584a15.37,15.37,0,0,1,2.128,4.744,24.779,24.779,0,0,1,.247,4.762,3.6,3.6,0,0,0,3.51,3.788m-26.275-2c.017.276.034.585.32.7s.433-.173.591-.346a2.641,2.641,0,0,0,.612-1.333c.027-.149.128-.363-.172-.384a1.624,1.624,0,0,0-1.352,1.363" transform="translate(976.995 1521)" fill="#de4958"/>
    <path id="Trazado_8833" data-name="Trazado 8833" d="M186.948,193.294a4.76,4.76,0,0,1-1.408,3.65q-3.526,3.561-7.086,7.089a1.36,1.36,0,0,1-2.259.005c-2.371-2.354-4.749-4.7-7.083-7.092A4.83,4.83,0,1,1,176,190.175c1.322,1.292,1.318,1.288,2.644,0A4.732,4.732,0,0,1,184,189.053a4.609,4.609,0,0,1,2.943,4.241m-16.651.316a2.088,2.088,0,0,0,.723,1.634c1.94,1.934,3.882,3.866,5.806,5.816.352.357.591.41.97.024,1.939-1.97,3.91-3.908,5.851-5.877a2.325,2.325,0,0,0,.081-3.289,2.246,2.246,0,0,0-3.27.079c-.52.5-1.023,1.02-1.534,1.53-1.4,1.4-1.8,1.4-3.182.024-.582-.58-1.144-1.183-1.756-1.73a2.222,2.222,0,0,0-3.688,1.789" transform="translate(842.844 1370.052)" fill="#de4958"/>
    <path id="Trazado_8834" data-name="Trazado 8834" d="M135.043,120.9a1.692,1.692,0,1,1-1.677,1.707,1.644,1.644,0,0,1,1.677-1.707" transform="translate(870.291 1424.267)" fill="#de4958"/>
    <path id="Trazado_8835" data-name="Trazado 8835" d="M131.33,246.3a1.692,1.692,0,1,1,1.678-1.707,1.646,1.646,0,0,1-1.678,1.707" transform="translate(873.285 1326.647)" fill="#de4958"/>
  </g>
</svg>
