<svg xmlns="http://www.w3.org/2000/svg" width="72" height="71.981" viewBox="0 0 72 71.981">
  <g id="Grupo_24155" data-name="Grupo 24155" transform="translate(-495.395 -1459.001)">
    <path id="Trazado_8801" data-name="Trazado 8801" d="M0,15.221A7.714,7.714,0,0,1,4.323,9.669a6.757,6.757,0,0,1,2.916-.676q1.861,0,3.723,0c.938,0,.938,0,.944-.911,0-.094,0-.187,0-.281a1.663,1.663,0,0,1,1.816-1.853c1.193-.031,2.388-.027,3.582,0a.837.837,0,0,0,.965-.667,7.557,7.557,0,0,1,14.415.014.791.791,0,0,0,.9.652c1.147-.025,2.294-.014,3.441,0,1.408.011,2.021.619,2.048,2.005.02,1.047.021,1.025,1.1,1.053a27.813,27.813,0,0,1,4.763.134,7.531,7.531,0,0,1,6.1,7.4c.021,2.9.01,5.806,0,8.709,0,1.131-.626,1.832-1.588,1.828s-1.568-.7-1.57-1.845c-.007-2.809,0-5.619,0-8.428a4.366,4.366,0,0,0-4.6-4.646c-1.124-.008-2.249.029-3.371-.013-.651-.024-.868.211-.841.85A4.765,4.765,0,0,1,37.74,16.71a4.421,4.421,0,0,1-3.27,1.374c-5.993-.01-11.987,0-17.98-.008a4.525,4.525,0,0,1-4.582-4.526c-.029-1.521.243-1.4-1.449-1.405-1.077,0-2.155-.018-3.231.013a4.26,4.26,0,0,0-4.105,4.105c-.042,2.668-.018,5.338-.018,8.007q0,15.522,0,31.044a4.357,4.357,0,0,0,3.258,4.449,5.878,5.878,0,0,0,1.6.12q9.9.006,19.807,0a3.556,3.556,0,0,1,1.181.123,1.583,1.583,0,0,1,1.071,1.631,1.532,1.532,0,0,1-1.436,1.39c-.233.018-.468.009-.7.009-6.649,0-13.3-.085-19.947.032A7.754,7.754,0,0,1,.075,57a1.228,1.228,0,0,0-.075-.2V15.221m25.457-.3c2.9,0,5.8,0,8.707,0,1.194,0,1.727-.513,1.748-1.691s-.012-2.341.014-3.511c.011-.5-.187-.65-.663-.64-1.1.023-2.2.008-3.3.007-1.508,0-1.968-.424-2.083-1.911A4.432,4.432,0,0,0,24.264,3.3,4.36,4.36,0,0,0,21.1,7.248c-.108,1.334-.64,1.836-1.961,1.84-1.1,0-2.2.026-3.3-.009-.568-.018-.8.152-.775.749.038,1.122.006,2.246.012,3.37.007,1.256.476,1.724,1.749,1.727q4.318.008,8.637,0" transform="translate(495.395 1459)" fill="#de4958"/>
    <path id="Trazado_8802" data-name="Trazado 8802" d="M192.719,214.551a20.5,20.5,0,0,1-6.8-2.108c-6.311-3.473-9.915-8.764-10.525-15.969a19.535,19.535,0,1,1,22.082,17.979,3.71,3.71,0,0,0-.405.1ZM211.248,195.1a16.387,16.387,0,1,0-16.411,16.359A16.276,16.276,0,0,0,211.248,195.1" transform="translate(352.973 1316.431)" fill="#de4958"/>
    <path id="Trazado_8803" data-name="Trazado 8803" d="M64.116,130.58H49.789c-.234,0-.469.008-.7-.008a1.547,1.547,0,0,1-.389-3.012,3.42,3.42,0,0,1,1.11-.135q14.4,0,28.794,0c.141,0,.282,0,.421.008a1.645,1.645,0,0,1,1.708,1.671,1.608,1.608,0,0,1-1.8,1.472q-7.409.006-14.818,0" transform="translate(456.696 1355.492)" fill="#de4958"/>
    <path id="Trazado_8804" data-name="Trazado 8804" d="M59.658,178.486c-3.441,0-6.882.005-10.323,0a1.508,1.508,0,0,1-1.663-1.578,1.491,1.491,0,0,1,1.105-1.454,3.676,3.676,0,0,1,1.112-.118q9.831,0,19.662,0a3.566,3.566,0,0,1,1.112.122,1.6,1.6,0,0,1,1.1,1.615,1.545,1.545,0,0,1-1.43,1.4c-.935.039-1.872.017-2.808.017q-3.933,0-7.865,0" transform="translate(456.671 1316.576)" fill="#de4958"/>
    <path id="Trazado_8805" data-name="Trazado 8805" d="M56.691,226.372q-3.617,0-7.235,0c-1.09,0-1.746-.545-1.786-1.457a1.576,1.576,0,0,1,1.743-1.679c1.849-.037,3.7-.015,5.549-.015,2.95,0,5.9-.008,8.85.005,1.158.005,1.846.541,1.923,1.436a1.509,1.509,0,0,1-1.6,1.706c-2.482.014-4.964,0-7.445.006" transform="translate(456.673 1277.683)" fill="#de4958"/>
    <path id="Trazado_8806" data-name="Trazado 8806" d="M242.814,241.027a1.935,1.935,0,0,1-.53,1.233q-5.084,5.809-10.174,11.612a1.609,1.609,0,0,1-2.655.089c-1.876-1.863-3.739-3.739-5.611-5.605a1.644,1.644,0,0,1-.535-1.893,1.566,1.566,0,0,1,2.659-.418q2.086,2.033,4.116,4.122c.423.437.648.529,1.108-.007,2.851-3.317,5.751-6.593,8.624-9.891a1.74,1.74,0,0,1,1.846-.714,1.477,1.477,0,0,1,1.109,1.233c.018.091.032.184.042.239" transform="translate(314.097 1264.456)" fill="#de4958"/>
  </g>
</svg>
