<svg xmlns="http://www.w3.org/2000/svg" width="66" height="66" viewBox="0 0 66 66">
  <g id="Grupo_24156" data-name="Grupo 24156" transform="translate(-391 -1558)">
    <path id="Trazado_8807" data-name="Trazado 8807" d="M.013,23.207Q.013,11.883,0,.56C0,.1.1,0,.56,0Q11.883.027,23.207.013c.015.235.043.469.043.7q0,10.809,0,21.618c0,.915,0,.917-.917.917q-10.809,0-21.618,0c-.235,0-.469-.028-.7-.043M18.007,11.679c0-1.952-.008-3.9.006-5.856,0-.424-.106-.62-.576-.618q-5.823.02-11.647,0c-.46,0-.586.175-.585.609q.017,5.791,0,11.583c0,.49.179.62.642.618q5.759-.02,11.519,0c.525,0,.657-.185.652-.676-.022-1.887-.009-3.775-.009-5.663" transform="translate(391 1558)" fill="#de4958"/>
    <path id="Trazado_8808" data-name="Trazado 8808" d="M331.795.014q11.34,0,22.679-.012c.441,0,.529.087.528.528q-.026,11.339-.012,22.679c-.235.015-.469.043-.7.043q-10.809,0-21.618,0c-.915,0-.917,0-.917-.917q0-10.809,0-21.618c0-.235.028-.469.043-.7m11.531,17.995c1.909,0,3.818-.017,5.727.011.543.008.753-.124.749-.712q-.036-5.695,0-11.39c0-.51-.121-.718-.678-.715q-5.727.031-11.454,0c-.553,0-.683.2-.681.712q.025,5.695,0,11.39c0,.585.2.724.746.715,1.866-.028,3.732-.011,5.6-.011" transform="translate(101.998 1557.998)" fill="#de4958"/>
    <path id="Trazado_8809" data-name="Trazado 8809" d="M23.209,354.989q-11.339,0-22.679.012c-.441,0-.529-.087-.528-.528q.026-11.339.012-22.679c.235-.015.469-.043.7-.043q10.809,0,21.618,0c.914,0,.917,0,.917.917q0,10.809,0,21.618c0,.235-.028.469-.043.7m-11.6-17.995c-1.866,0-3.733.021-5.6-.012-.6-.011-.818.139-.813.781q.043,5.63,0,11.261c0,.57.129.785.747.78q5.662-.041,11.325,0c.546,0,.75-.129.746-.714q-.036-5.695,0-11.39c0-.588-.2-.721-.748-.713-1.887.028-3.775.011-5.663.011" transform="translate(390.998 1268.998)" fill="#de4958"/>
    <path id="Trazado_8810" data-name="Trazado 8810" d="M428.1,294.787v12.5c-.277.015-.553.043-.83.043q-5.739,0-11.478,0l-.118-.1q.005-2.025.01-4.051c0-1.092,0-1.093,1.062-1.093,1.844,0,3.687-.013,5.53.008.475.005.636-.151.631-.629-.022-2.208-.014-4.415-.017-6.623l.117-.1,5.091.046" transform="translate(28.89 1301.238)" fill="#de4958"/>
    <path id="Trazado_8811" data-name="Trazado 8811" d="M.1,214.723c.428-.015.856-.043,1.284-.043,3.628,0,7.256.009,10.884-.012.581,0,.8.163.772.763-.064,1.478.058,2.96-.064,4.438-1.924.123-3.85.012-5.775.059-.594.014-1.344-.257-1.741.119-.43.407-.134,1.177-.154,1.787-.029.9-.012,1.8-.008,2.7,0,.313-.059.548-.45.543-1.583-.018-3.166-.028-4.749-.041V214.723" transform="translate(390.914 1370.994)" fill="#de4958"/>
    <path id="Trazado_8812" data-name="Trazado 8812" d="M255.7,431.751c1.581-.118,3.165-.027,4.747-.049.451-.006.442.3.442.614,0,1.285.023,2.57-.009,3.854-.013.538.171.705.7.692,1.262-.031,2.526.005,3.789-.017.481-.008.7.125.683.65-.04,1.518-.038,3.037-.053,4.556H255.692c-.015-2.069-.046-4.138-.039-6.207,0-1.364-.074-2.73.048-4.092" transform="translate(168.308 1181.937)" fill="#de4958"/>
    <path id="Trazado_8813" data-name="Trazado 8813" d="M260.869.1q.019,3.668.039,7.337c0,.29-.13.437-.425.433-1.586-.019-3.174.07-4.759-.048-.12-1.488-.036-2.978-.049-4.467-.01-1.085.025-2.17.04-3.255Z" transform="translate(168.285 1557.914)" fill="#de4958"/>
    <path id="Trazado_8814" data-name="Trazado 8814" d="M455.725,471.726c1.551-.128,3.1-.032,4.656-.052.85-.01,1.7.026,2.55.04,0,1.589-.01,3.179.009,4.768,0,.323-.073.4-.4.4-2.276-.016-4.553-.009-6.829-.009-.068-1.715-.086-3.429.01-5.143" transform="translate(-5.944 1147.118)" fill="#de4958"/>
    <path id="Trazado_8815" data-name="Trazado 8815" d="M476.893,219.987c-1.715.069-3.43.086-5.145-.009-.118-1.585-.029-3.173-.048-4.759,0-.3.142-.429.433-.426q2.38.021,4.76.039Z" transform="translate(-19.906 1370.884)" fill="#de4958"/>
    <path id="Trazado_8816" data-name="Trazado 8816" d="M375.833,476.891q-.019-2.38-.039-4.76c0-.291.13-.436.426-.433,1.586.021,3.173-.073,4.758.05.1,1.714.078,3.429.01,5.143Z" transform="translate(63.63 1147.096)" fill="#de4958"/>
    <path id="Trazado_8817" data-name="Trazado 8817" d="M99.7,219.9c1.412-.12,2.826-.028,4.238-.052.859-.014.861,0,.862-.835,0-1.222.02-2.444-.008-3.665-.012-.509.172-.674.671-.664q1.961.037,3.922,0c.505-.01.677.166.667.669-.026,1.243.017,2.487-.019,3.729-.017.573.132.8.749.778,1.263-.046,2.529-.015,3.793-.015l.118.1v5.044l-.117.1c-4.7,0-9.4-.012-14.1.012-.643,0-.872-.169-.838-.83.073-1.456-.057-2.916.066-4.373" transform="translate(304.206 1370.98)" fill="#de4958"/>
    <path id="Trazado_8818" data-name="Trazado 8818" d="M265.986,307.268q-4.7,0-9.4,0c-.277,0-.555-.034-.832-.052-.123-1.693-.019-3.389-.056-5.083l.1-.118c1.478,0,2.957-.008,4.435.019.479.008.633-.158.628-.632-.021-2.207-.014-4.413-.017-6.62l.109-.111q2.152.005,4.3.011c.837,0,.84,0,.841.862q.006,5.813.01,11.626l-.117.1" transform="translate(168.26 1301.303)" fill="#de4958"/>
    <path id="Trazado_8819" data-name="Trazado 8819" d="M220.781,302.13c-1.5-.006-3-.029-4.5-.009-.508.007-.667-.173-.664-.671.014-2.227,0-4.454-.01-6.681l.117-.1h5.044l.111.109q0,3.617,0,7.234l-.1.118" transform="translate(203.173 1301.303)" fill="#de4958"/>
    <path id="Trazado_8820" data-name="Trazado 8820" d="M220.978,391.749a49.424,49.424,0,0,1,0,5.136c-1.584.118-3.17.028-4.755.048a.373.373,0,0,1-.429-.429q0-2.187,0-4.375a.373.373,0,0,1,.429-.429c1.585.02,3.171-.07,4.755.048" transform="translate(203.013 1216.785)" fill="#de4958"/>
    <path id="Trazado_8821" data-name="Trazado 8821" d="M220.839,99.751c1.583-.118,3.168-.027,4.752-.049.343,0,.436.188.436.49,0,3.129-.006,6.258,0,9.386,0,.456-.243.522-.612.519-1.286-.008-2.572.019-3.857-.012-.532-.013-.7.16-.7.695.022,2.957.011,5.915.012,8.872l-.1.117h-5.044l-.118-.1q.009-6.915.018-13.829c0-.986,0-.987.975-.988,1.158,0,2.317-.029,3.473.012.584.021.72-.2.719-.744,0-1.456-.082-2.914.041-4.369" transform="translate(203.17 1471.157)" fill="#de4958"/>
    <path id="Trazado_8822" data-name="Trazado 8822" d="M220.978,59.749a49.425,49.425,0,0,1,0,5.136c-1.584.118-3.17.028-4.755.048a.373.373,0,0,1-.429-.429q0-2.187,0-4.375a.373.373,0,0,1,.429-.429c1.585.02,3.171-.07,4.755.048" transform="translate(203.013 1506.005)" fill="#de4958"/>
    <path id="Trazado_8823" data-name="Trazado 8823" d="M295.686,219.829c0-1.481.019-2.963-.008-4.443-.01-.532.171-.7.7-.7q7.084.024,14.168,0c.531,0,.711.17.7.7-.027,1.481-.008,2.962-.008,4.443l-.1.118H295.788l-.1-.117" transform="translate(133.422 1370.979)" fill="#de4958"/>
    <path id="Trazado_8824" data-name="Trazado 8824" d="M422.939,254.685c.122,1.465.021,2.932.054,4.4.005.234.012.468.018.7l-.117.1-7.1-.009-.109-.11q0-2.518-.008-5.036l.1-.118q3.167.009,6.334.02c.276,0,.551.034.826.052" transform="translate(28.885 1336.196)" fill="#de4958"/>
    <path id="Trazado_8825" data-name="Trazado 8825" d="M255.769,254.61h5.062l.1.117q0,2.522,0,5.044l-.109.111h-5.045l-.111-.109v-5.045l.1-.118" transform="translate(168.277 1336.198)" fill="#de4958"/>
    <path id="Trazado_8826" data-name="Trazado 8826" d="M346.044,391.769c-.006,1.467-.01,2.935-.02,4.4,0,.232-.034.464-.052.7a7.921,7.921,0,0,1-1.6.051c-2.675.007-5.349-.011-8.024.014-.565.005-.742-.174-.732-.735.027-1.476,0-2.952-.007-4.428l.117-.1h10.2l.118.1" transform="translate(98.636 1216.802)" fill="#de4958"/>
    <path id="Trazado_8827" data-name="Trazado 8827" d="M420.854,436.885a49.408,49.408,0,0,1-5.136,0,49.408,49.408,0,0,1,0-5.136c1.584-.118,3.17-.028,4.755-.048a.371.371,0,0,1,.429.429c-.02,1.585.07,3.171-.048,4.755" transform="translate(28.909 1181.939)" fill="#de4958"/>
    <path id="Trazado_8828" data-name="Trazado 8828" d="M74.957,72.279c0,.686-.015,1.373.006,2.058.013.428-.127.622-.586.615-1.351-.019-2.7-.016-4.053,0-.428.005-.622-.127-.615-.586.019-1.351.017-2.7,0-4.053-.005-.428.127-.622.586-.615,1.351.019,2.7.022,4.053,0,.493-.009.633.2.616.653-.024.642-.006,1.286-.007,1.93" transform="translate(330.274 1497.285)" fill="#de4958"/>
    <path id="Trazado_8829" data-name="Trazado 8829" d="M404.376,69.757c.708,0,1.415.007,2.123,0,.353-.005.5.146.5.5q-.011,2.123,0,4.246c0,.353-.146.5-.5.5q-2.123-.011-4.246,0c-.353,0-.5-.146-.5-.5q.011-2.123,0-4.246c0-.353.146-.5.5-.5.708.01,1.415,0,2.123,0" transform="translate(41.015 1497.234)" fill="#de4958"/>
    <path id="Trazado_8830" data-name="Trazado 8830" d="M74.994,404.375c0,.708-.007,1.415,0,2.123.005.353-.145.5-.5.5q-2.123-.011-4.246,0c-.352,0-.5-.145-.5-.5q.011-2.123,0-4.246c0-.353.145-.5.5-.5q2.123.011,4.246,0c.353,0,.5.145.5.5-.01.708,0,1.415,0,2.123" transform="translate(330.234 1208.015)" fill="#de4958"/>
    <path id="Trazado_8831" data-name="Trazado 8831" d="M380.954,294.724c-.006,1.5-.029,3-.008,4.5.007.512-.179.671-.674.661q-1.96-.037-3.92,0c-.5.01-.677-.165-.667-.668q.039-1.959,0-3.92c-.009-.5.151-.68.662-.673,1.5.02,3,0,4.5-.009l.108.11" transform="translate(63.725 1301.349)" fill="#de4958"/>
  </g>
</svg>
