<svg xmlns="http://www.w3.org/2000/svg" width="36" height="36" viewBox="0 0 36 36">
  <g id="Grupo_24338" data-name="Grupo 24338" transform="translate(-1166 -2591)">
    <circle id="Elipse_38" data-name="Elipse 38" cx="18" cy="18" r="18" transform="translate(1166 2591)" fill="#32a4de"/>
    <g id="Icon_feather-instagram" data-name="Icon feather-instagram" transform="translate(1172 2597)">
      <path id="Trazado_18177" data-name="Trazado 18177" d="M7.5,3h9A4.5,4.5,0,0,1,21,7.5v9A4.5,4.5,0,0,1,16.5,21h-9A4.5,4.5,0,0,1,3,16.5v-9A4.5,4.5,0,0,1,7.5,3Z" fill="none" stroke="#fff" stroke-linecap="round" stroke-linejoin="round" stroke-width="2"/>
      <path id="Trazado_18178" data-name="Trazado 18178" d="M19.226,15.007a3.6,3.6,0,1,1-3.033-3.033,3.6,3.6,0,0,1,3.033,3.033Z" transform="translate(-3.626 -3.574)" fill="none" stroke="#fff" stroke-linecap="round" stroke-linejoin="round" stroke-width="2"/>
      <path id="Trazado_18179" data-name="Trazado 18179" d="M26.25,9.75h0" transform="translate(-9.3 -2.7)" fill="none" stroke="#fff" stroke-linecap="round" stroke-linejoin="round" stroke-width="2"/>
    </g>
  </g>
</svg>
