<svg xmlns="http://www.w3.org/2000/svg" width="138.507" height="42" viewBox="0 0 138.507 42">
  <g id="Grupo_24335" data-name="Grupo 24335" transform="translate(-112 261)">
    <path id="Trazado_18326" data-name="Trazado 18326" d="M7.079,86.616l-3.114-6.4v8.636a.816.816,0,0,1-.909.909H.909A.816.816,0,0,1,0,88.855V74.764a.816.816,0,0,1,.909-.909H3.773a1.065,1.065,0,0,1,1.057.67l3.807,7.909,3.8-7.909a1.05,1.05,0,0,1,1.057-.67h2.864a.816.816,0,0,1,.909.909V88.855a.816.816,0,0,1-.909.909H14.216a.816.816,0,0,1-.909-.909V80.219l-3.125,6.4a1.074,1.074,0,0,1-1.068.67H8.148a1.074,1.074,0,0,1-1.068-.67" transform="translate(112 -314.037)" fill="#0d3c54"/>
    <path id="Trazado_18327" data-name="Trazado 18327" d="M74.507,87.562a4.9,4.9,0,0,1,3.568,1.466v-.284a.816.816,0,0,1,.909-.909h2.273a.816.816,0,0,1,.909.909V98.7a.816.816,0,0,1-.909.909H78.984a.816.816,0,0,1-.909-.909v-.284a4.9,4.9,0,0,1-3.568,1.466c-3.159,0-5.375-2.693-5.375-6.159s2.216-6.159,5.375-6.159m1.159,8.67a2.514,2.514,0,1,0-2.409-2.511,2.434,2.434,0,0,0,2.409,2.511" transform="translate(62.355 -323.88)" fill="#0d3c54"/>
    <path id="Trazado_18328" data-name="Trazado 18328" d="M125.474,96.153a4.657,4.657,0,0,0,2.4.682c.716,0,1.137-.273,1.137-.7,0-.466-.409-.761-1.58-1.011-2.4-.523-3.8-1.943-3.8-3.909,0-2.114,1.887-3.648,4.477-3.648a4.4,4.4,0,0,1,4.534,2.966c.2.614-.159,1-.8,1H130.2c-.5,0-.682-.273-1.057-.636a1.094,1.094,0,0,0-.773-.284c-.557,0-.9.261-.9.648,0,.42.318.727,1.579,1,2.636.568,3.943,1.932,3.943,3.886,0,2.148-1.955,3.739-4.807,3.739a6.021,6.021,0,0,1-4.261-1.886.892.892,0,0,1-.034-1.284l.307-.387a.856.856,0,0,1,1.273-.17" transform="translate(23.217 -323.88)" fill="#0d3c54"/>
    <path id="Trazado_18329" data-name="Trazado 18329" d="M172.518,97.006a5.76,5.76,0,0,1-5.091,2.875,6.23,6.23,0,0,1-6.386-6.159,6.09,6.09,0,0,1,6.239-6.159,5.683,5.683,0,0,1,5.636,3.806c.216.614-.136,1.011-.784,1.011h-2.4a1.347,1.347,0,0,1-1.091-.625,1.741,1.741,0,0,0-1.364-.545,2.323,2.323,0,0,0-2.114,2.512,2.4,2.4,0,0,0,2.6,2.511,4.106,4.106,0,0,0,2.6-.954.881.881,0,0,1,1.273-.057l.647.523a.871.871,0,0,1,.227,1.261" transform="translate(-3.647 -323.881)" fill="#0d3c54"/>
    <path id="Trazado_18330" data-name="Trazado 18330" d="M263.51,88.525h.364c.614-.023.943.261.943.864V90.8a.975.975,0,0,1-.682,1.045,5.771,5.771,0,0,1-1.864.284,3.933,3.933,0,0,1-4.17-4.159V83.684h-.9a.816.816,0,0,1-.909-.909V80.991a.816.816,0,0,1,.909-.909h.9V78.013a.879.879,0,0,1,.852-.966l2.386-.273a.778.778,0,0,1,.954.863v2.443h1.477a.816.816,0,0,1,.909.909v1.784a.816.816,0,0,1-.909.909h-1.477v3.739c0,.727.4,1.1,1.216,1.1" transform="translate(-72.05 -316.127)" fill="#0d3c54"/>
    <path id="Trazado_18331" data-name="Trazado 18331" d="M220.252,92.078a2,2,0,0,1-1.547-.444,2.841,2.841,0,0,1-4.857-1.508,2,2,0,0,1-2.24-.573,6.044,6.044,0,0,0-3.806,5.6c0,3.466,2.875,6.159,6.648,6.159s6.648-2.693,6.648-6.159a5.926,5.926,0,0,0-.846-3.073m-5.808,5.612a2.511,2.511,0,1,1,2.534-2.511,2.459,2.459,0,0,1-2.534,2.511" transform="translate(-37.227 -325.311)" fill="#0d3c54"/>
    <path id="Trazado_18332" data-name="Trazado 18332" d="M303.622,74.594l4.75,14.136c.216.625-.079,1.034-.739,1.034h-2.557A.955.955,0,0,1,304.053,89l-.659-2.284h-4.761L297.974,89a.954.954,0,0,1-1.011.762h-2.557c-.659,0-.954-.409-.739-1.034l4.75-14.136a.984.984,0,0,1,1.034-.739h3.136a.984.984,0,0,1,1.034.739M302.5,83.435l-1.477-5.1-1.477,5.1Z" transform="translate(-98.838 -314.037)" fill="#32a4de"/>
    <path id="Trazado_18333" data-name="Trazado 18333" d="M360.559,99.88a4.862,4.862,0,0,1-3.568-1.466v5.557a.816.816,0,0,1-.909.909h-2.273a.816.816,0,0,1-.909-.909V88.744a.816.816,0,0,1,.909-.909h2.273a.816.816,0,0,1,.909.909v.284a4.862,4.862,0,0,1,3.568-1.466c3.17,0,5.375,2.693,5.375,6.159s-2.2,6.159-5.375,6.159m-1.148-8.671a2.514,2.514,0,1,0,2.4,2.512,2.437,2.437,0,0,0-2.4-2.512" transform="translate(-141.425 -323.88)" fill="#32a4de"/>
    <path id="Trazado_18334" data-name="Trazado 18334" d="M413.85,99.88a4.862,4.862,0,0,1-3.568-1.466v5.557a.816.816,0,0,1-.909.909H407.1a.816.816,0,0,1-.909-.909V88.744a.816.816,0,0,1,.909-.909h2.273a.816.816,0,0,1,.909.909v.284a4.862,4.862,0,0,1,3.568-1.466c3.17,0,5.375,2.693,5.375,6.159s-2.2,6.159-5.375,6.159M412.7,91.21a2.514,2.514,0,1,0,2.4,2.512,2.437,2.437,0,0,0-2.4-2.512" transform="translate(-179.694 -323.88)" fill="#32a4de"/>
    <path id="Trazado_18335" data-name="Trazado 18335" d="M459.993,96.153a4.657,4.657,0,0,0,2.4.682c.716,0,1.136-.273,1.136-.7,0-.466-.409-.761-1.579-1.011-2.4-.523-3.8-1.943-3.8-3.909,0-2.114,1.886-3.648,4.477-3.648a4.4,4.4,0,0,1,4.534,2.966c.2.614-.159,1-.8,1H464.72c-.5,0-.682-.273-1.057-.636a1.094,1.094,0,0,0-.773-.284c-.557,0-.9.261-.9.648,0,.42.318.727,1.58,1,2.636.568,3.943,1.932,3.943,3.886,0,2.148-1.955,3.739-4.807,3.739a6.022,6.022,0,0,1-4.261-1.886.892.892,0,0,1-.034-1.284l.307-.387a.856.856,0,0,1,1.273-.17" transform="translate(-217.009 -323.88)" fill="#32a4de"/>
    <path id="Trazado_18336" data-name="Trazado 18336" d="M231.628,50.83c-2.643,0-4.786-2.647-4.786-4.129s2.143-2.683,4.786-2.683,4.786,1.2,4.786,2.683-2.143,4.129-4.786,4.129" transform="translate(-50.9 -292.61)" fill="#406a80"/>
    <path id="Trazado_18337" data-name="Trazado 18337" d="M253.426,28.774h0a1.871,1.871,0,0,1-1.871-1.871v-1.39a1.871,1.871,0,0,1,3.742,0V26.9a1.871,1.871,0,0,1-1.871,1.871" transform="translate(-68.647 -277.978)" fill="#406a80"/>
    <path id="Trazado_18338" data-name="Trazado 18338" d="M225.573,28.774h0A1.871,1.871,0,0,1,223.7,26.9v-1.39a1.871,1.871,0,1,1,3.742,0V26.9a1.871,1.871,0,0,1-1.871,1.871" transform="translate(-48.645 -277.978)" fill="#406a80"/>
    <path id="Trazado_18339" data-name="Trazado 18339" d="M229.152,26.658a.767.767,0,1,1-.767-.767.767.767,0,0,1,.767.767" transform="translate(-51.458 -279.593)" fill="#fff"/>
    <path id="Trazado_18340" data-name="Trazado 18340" d="M240.721,47.076c0,.423-.9.767-2,.767s-2-.343-2-.767.9-.767,2-.767,2,.343,2,.767" transform="translate(-57.989 -294.256)" fill="#fff"/>
    <path id="Trazado_18341" data-name="Trazado 18341" d="M257.005,26.658a.767.767,0,1,1-.767-.767.767.767,0,0,1,.767.767" transform="translate(-71.46 -279.593)" fill="#fff"/>
    <path id="Trazado_18342" data-name="Trazado 18342" d="M214.192,4.822c-2.442-2.618-11.37-8.089-13.716-2.174a10.809,10.809,0,0,0-10.848-.089c-2.434-5.775-11.251-.337-13.686,2.263a2.652,2.652,0,0,0-.45,2.824c.971,2.594,4.561,4.983,7.512,4.2a8.232,8.232,0,0,0-.787,6.356.483.483,0,1,0,.935-.248,7.048,7.048,0,0,1,1.385-6.567,9.032,9.032,0,0,0,1.133-1.551c.7-1.131.758-2.426,1.479-3.534a.431.431,0,0,0-.107-.643.556.556,0,0,0-.719.161,7.2,7.2,0,0,0-.842,1.984,3.806,3.806,0,0,1-4.255,3.193c-2.462-.274-6.172-3.423-4.575-5.51,2.095-2.262,10.745-7.625,12.22-2.1a.525.525,0,0,0,.8.282,9.812,9.812,0,0,1,10.66.027.581.581,0,0,0,.934-.31A2.734,2.734,0,0,1,203.31,1.11a5.647,5.647,0,0,1,2.637.071,4.35,4.35,0,0,0,2.314,3.341c1.335.58,3.456.462,3.794-.3a11.466,11.466,0,0,1,1.429,1.26,1.687,1.687,0,0,1,.242,1.835,6.663,6.663,0,0,1-4.932,3.761,3.564,3.564,0,0,1-3.505-1.482c-.834-1.234-.89-2.651-1.7-3.881a.484.484,0,0,0-.828.5c.759,1.185.829,2.546,1.612,3.735a9.02,9.02,0,0,0,1.1,1.472,6.984,6.984,0,0,1,1.485,6.529.483.483,0,1,0,.935.248,8.067,8.067,0,0,0-.833-6.258c3.449,1.086,9.809-3.686,7.133-7.117" transform="translate(-13.875 -261)" fill="#406a80"/>
    <path id="Trazado_18343" data-name="Trazado 18343" d="M301.634,18.942a1,1,0,0,1-.245,1.465c-.55.315-1.894.132-1.7-.469.376-1.156,1.708-1.355,1.943-1" transform="translate(-103.2 -274.487)" fill="#406a80"/>
  </g>
</svg>
