<?xml version="1.0" standalone="no"?>
<!DOCTYPE svg PUBLIC "-//W3C//DTD SVG 20010904//EN"
 "http://www.w3.org/TR/2001/REC-SVG-20010904/DTD/svg10.dtd">
<svg version="1.0" xmlns="http://www.w3.org/2000/svg"
 width="512.000000pt" height="512.000000pt" viewBox="0 0 512.000000 512.000000"
 preserveAspectRatio="xMidYMid meet">

<g transform="translate(0.000000,512.000000) scale(0.100000,-0.100000)"
fill="#000000" stroke="none">
<path d="M958 4086 c-48 -13 -61 -21 -112 -65 -103 -92 -98 -275 9 -370 82
-72 -65 -66 1705 -66 1770 0 1623 -6 1705 66 112 99 112 279 0 378 -82 72 62
66 -1685 68 -1248 1 -1585 -1 -1622 -11z"/>
<path d="M958 2806 c-48 -13 -61 -21 -112 -65 -103 -92 -98 -275 9 -370 82
-72 -65 -66 1705 -66 1770 0 1623 -6 1705 66 112 99 112 279 0 378 -82 72 62
66 -1685 68 -1248 1 -1585 -1 -1622 -11z"/>
<path d="M958 1526 c-48 -13 -61 -21 -112 -65 -103 -92 -98 -275 9 -370 82
-72 -65 -66 1705 -66 1770 0 1623 -6 1705 66 112 99 112 279 0 378 -82 72 62
66 -1685 68 -1248 1 -1585 -1 -1622 -11z"/>
</g>
</svg>
