<svg xmlns="http://www.w3.org/2000/svg" width="36" height="36" viewBox="0 0 36 36">
  <g id="Grupo_24336" data-name="Grupo 24336" transform="translate(-1058 -2591)">
    <circle id="Elipse_36" data-name="Elipse 36" cx="18" cy="18" r="18" transform="translate(1058 2591)" fill="#32a4de"/>
    <path id="Icon_ionic-logo-twitter" data-name="Icon ionic-logo-twitter" d="M19.413,6.236a7.466,7.466,0,0,1-2.121.584,3.706,3.706,0,0,0,1.625-2.045,7.338,7.338,0,0,1-2.346.9A3.692,3.692,0,0,0,10.183,8.2a3.615,3.615,0,0,0,.1.843A10.466,10.466,0,0,1,2.664,5.175a3.7,3.7,0,0,0,1.148,4.936,3.607,3.607,0,0,1-1.678-.462V9.7A3.7,3.7,0,0,0,5.1,13.319a3.717,3.717,0,0,1-.973.13,3.484,3.484,0,0,1-.694-.069,3.7,3.7,0,0,0,3.452,2.567A7.4,7.4,0,0,1,2.294,17.53a7.486,7.486,0,0,1-.881-.053,10.322,10.322,0,0,0,5.653,1.671A10.445,10.445,0,0,0,17.582,8.627c0-.16,0-.32-.011-.477A7.518,7.518,0,0,0,19.413,6.236Z" transform="translate(1065.587 2597.176)" fill="#fff"/>
  </g>
</svg>
